<svg width="26" height="26" xmlns="http://www.w3.org/2000/svg"><path d="m23.083 5.314-1.432 1.12a10.639 10.639 0 0 0-8.4-4.098A10.656 10.656 0 0 0 2.59 12.987c-.008 5.896 4.768 10.677 10.661 10.677 4.604 0 8.527-2.92 10.02-7.01a.204.204 0 0 0-.125-.262l-1.44-.495a.203.203 0 0 0-.256.122 8.688 8.688 0 0 1-2.021 3.156 8.677 8.677 0 0 1-6.172 2.56 8.668 8.668 0 0 1-3.398-.686 8.67 8.67 0 0 1-2.775-1.874 8.688 8.688 0 0 1-1.871-2.778 8.69 8.69 0 0 1-.686-3.4c0-1.18.231-2.323.686-3.4A8.688 8.688 0 0 1 7.084 6.82a8.677 8.677 0 0 1 6.172-2.56c1.181 0 2.324.232 3.398.686a8.67 8.67 0 0 1 2.775 1.874c.251.251.487.518.706.797l-1.529 1.194a.203.203 0 0 0 .076.358l4.459 1.091a.204.204 0 0 0 .251-.195l.02-4.593a.205.205 0 0 0-.33-.158z" fill="#666" fill-rule="nonzero"/></svg>